<svg id="visual" viewBox="0 0 900 600" width="900" height="600" xmlns="http://www.w3.org/2000/svg" xmlns:xlink="http://www.w3.org/1999/xlink" version="1.1"><rect x="0" y="0" width="900" height="600" fill="#0F172A"></rect><path d="M0 415L21.5 416.2C43 417.3 86 419.7 128.8 422.7C171.7 425.7 214.3 429.3 257.2 429.5C300 429.7 343 426.3 385.8 417.5C428.7 408.7 471.3 394.3 514.2 395.8C557 397.3 600 414.7 642.8 422.7C685.7 430.7 728.3 429.3 771.2 422.5C814 415.7 857 403.3 878.5 397.2L900 391L900 601L878.5 601C857 601 814 601 771.2 601C728.3 601 685.7 601 642.8 601C600 601 557 601 514.2 601C471.3 601 428.7 601 385.8 601C343 601 300 601 257.2 601C214.3 601 171.7 601 128.8 601C86 601 43 601 21.5 601L0 601Z" fill="#1e293b"></path><path d="M0 417L21.5 426.5C43 436 86 455 128.8 453.7C171.7 452.3 214.3 430.7 257.2 425C300 419.3 343 429.7 385.8 433.5C428.7 437.3 471.3 434.7 514.2 427.8C557 421 600 410 642.8 409.2C685.7 408.3 728.3 417.7 771.2 422.8C814 428 857 429 878.5 429.5L900 430L900 601L878.5 601C857 601 814 601 771.2 601C728.3 601 685.7 601 642.8 601C600 601 557 601 514.2 601C471.3 601 428.7 601 385.8 601C343 601 300 601 257.2 601C214.3 601 171.7 601 128.8 601C86 601 43 601 21.5 601L0 601Z" fill="#4a5364"></path><path d="M0 457L21.5 462.2C43 467.3 86 477.7 128.8 486.7C171.7 495.7 214.3 503.3 257.2 497C300 490.7 343 470.3 385.8 465.2C428.7 460 471.3 470 514.2 475.2C557 480.3 600 480.7 642.8 481.5C685.7 482.3 728.3 483.7 771.2 476.7C814 469.7 857 454.3 878.5 446.7L900 439L900 601L878.5 601C857 601 814 601 771.2 601C728.3 601 685.7 601 642.8 601C600 601 557 601 514.2 601C471.3 601 428.7 601 385.8 601C343 601 300 601 257.2 601C214.3 601 171.7 601 128.8 601C86 601 43 601 21.5 601L0 601Z" fill="#798290"></path><path d="M0 492L21.5 497.7C43 503.3 86 514.7 128.8 516.5C171.7 518.3 214.3 510.7 257.2 504.5C300 498.3 343 493.7 385.8 494.7C428.7 495.7 471.3 502.3 514.2 506.3C557 510.3 600 511.7 642.8 517C685.7 522.3 728.3 531.7 771.2 531.3C814 531 857 521 878.5 516L900 511L900 601L878.5 601C857 601 814 601 771.2 601C728.3 601 685.7 601 642.8 601C600 601 557 601 514.2 601C471.3 601 428.7 601 385.8 601C343 601 300 601 257.2 601C214.3 601 171.7 601 128.8 601C86 601 43 601 21.5 601L0 601Z" fill="#acb4bf"></path><path d="M0 543L21.5 542.2C43 541.3 86 539.7 128.8 540.2C171.7 540.7 214.3 543.3 257.2 543.7C300 544 343 542 385.8 542.5C428.7 543 471.3 546 514.2 545.2C557 544.3 600 539.7 642.8 536.8C685.7 534 728.3 533 771.2 534.8C814 536.7 857 541.3 878.5 543.7L900 546L900 601L878.5 601C857 601 814 601 771.2 601C728.3 601 685.7 601 642.8 601C600 601 557 601 514.2 601C471.3 601 428.7 601 385.8 601C343 601 300 601 257.2 601C214.3 601 171.7 601 128.8 601C86 601 43 601 21.5 601L0 601Z" fill="#e2e8f0"></path></svg>