<svg id="visual" viewBox="0 0 900 600" width="900" height="600" xmlns="http://www.w3.org/2000/svg" xmlns:xlink="http://www.w3.org/1999/xlink" version="1.1"><rect x="0" y="0" width="900" height="600" fill="#001220"></rect><path d="M0 390L21.5 393.3C43 396.7 86 403.3 128.8 399.8C171.7 396.3 214.3 382.7 257.2 388C300 393.3 343 417.7 385.8 421.5C428.7 425.3 471.3 408.7 514.2 405.3C557 402 600 412 642.8 406C685.7 400 728.3 378 771.2 382.3C814 386.7 857 417.3 878.5 432.7L900 448L900 601L878.5 601C857 601 814 601 771.2 601C728.3 601 685.7 601 642.8 601C600 601 557 601 514.2 601C471.3 601 428.7 601 385.8 601C343 601 300 601 257.2 601C214.3 601 171.7 601 128.8 601C86 601 43 601 21.5 601L0 601Z" fill="#fa7268"></path><path d="M0 443L21.5 443C43 443 86 443 128.8 443C171.7 443 214.3 443 257.2 441C300 439 343 435 385.8 440C428.7 445 471.3 459 514.2 466.8C557 474.7 600 476.3 642.8 466.5C685.7 456.7 728.3 435.3 771.2 422.3C814 409.3 857 404.7 878.5 402.3L900 400L900 601L878.5 601C857 601 814 601 771.2 601C728.3 601 685.7 601 642.8 601C600 601 557 601 514.2 601C471.3 601 428.7 601 385.8 601C343 601 300 601 257.2 601C214.3 601 171.7 601 128.8 601C86 601 43 601 21.5 601L0 601Z" fill="#ef5f67"></path><path d="M0 467L21.5 463C43 459 86 451 128.8 455C171.7 459 214.3 475 257.2 483.2C300 491.3 343 491.7 385.8 485.3C428.7 479 471.3 466 514.2 458.7C557 451.3 600 449.7 642.8 449C685.7 448.3 728.3 448.7 771.2 456.8C814 465 857 481 878.5 489L900 497L900 601L878.5 601C857 601 814 601 771.2 601C728.3 601 685.7 601 642.8 601C600 601 557 601 514.2 601C471.3 601 428.7 601 385.8 601C343 601 300 601 257.2 601C214.3 601 171.7 601 128.8 601C86 601 43 601 21.5 601L0 601Z" fill="#e34c67"></path><path d="M0 493L21.5 491.8C43 490.7 86 488.3 128.8 492.7C171.7 497 214.3 508 257.2 516C300 524 343 529 385.8 522.8C428.7 516.7 471.3 499.3 514.2 492.7C557 486 600 490 642.8 495.5C685.7 501 728.3 508 771.2 509.5C814 511 857 507 878.5 505L900 503L900 601L878.5 601C857 601 814 601 771.2 601C728.3 601 685.7 601 642.8 601C600 601 557 601 514.2 601C471.3 601 428.7 601 385.8 601C343 601 300 601 257.2 601C214.3 601 171.7 601 128.8 601C86 601 43 601 21.5 601L0 601Z" fill="#d53867"></path><path d="M0 531L21.5 531.5C43 532 86 533 128.8 539.7C171.7 546.3 214.3 558.7 257.2 557.3C300 556 343 541 385.8 533.3C428.7 525.7 471.3 525.3 514.2 529.7C557 534 600 543 642.8 543.5C685.7 544 728.3 536 771.2 533.7C814 531.3 857 534.7 878.5 536.3L900 538L900 601L878.5 601C857 601 814 601 771.2 601C728.3 601 685.7 601 642.8 601C600 601 557 601 514.2 601C471.3 601 428.7 601 385.8 601C343 601 300 601 257.2 601C214.3 601 171.7 601 128.8 601C86 601 43 601 21.5 601L0 601Z" fill="#c62368"></path></svg>